<svg width="103" height="31" viewBox="0 0 103 31" fill="none" xmlns="http://www.w3.org/2000/svg">
<path d="M16.1728 0L8.08582 8.08694H24.2597V0H16.1728Z" fill="#F0DE35"/>
<path d="M24.2618 22.913L32.3487 15.5002V8.08691H24.2618V22.913Z" fill="#F9AE41"/>
<path d="M8.08582 22.9131V31H16.1728L24.2597 22.9131H8.08582Z" fill="#9AD6EB"/>
<path d="M0 15.5001V22.913H8.08694V8.08691L0 15.5001Z" fill="#07B1D4"/>
<path d="M24.2618 8.08694H32.3487V0H24.2618V8.08694Z" fill="#F59421"/>
<path d="M0 31H8.08694V22.9131H0V31Z" fill="#04819B"/>
<path fill-rule="evenodd" clip-rule="evenodd" d="M48.959 5.84835C49.7848 6.03851 50.5377 6.38695 51.1973 6.88395C51.8491 7.38095 52.3413 8.03021 52.6608 8.81557C52.9737 9.58498 53.1324 10.5279 53.1324 11.618V23.4287H49.6687V21.9968C49.558 22.0842 49.4386 22.1789 49.3114 22.2808C48.9139 22.5989 48.5215 22.8566 48.1452 23.0467C47.64 23.3124 47.138 23.5227 46.6575 23.669C46.1598 23.8203 45.4934 23.8938 44.6202 23.8938C43.8945 23.8938 43.1951 23.7535 42.5419 23.4765C41.8896 23.2004 41.3078 22.8067 40.8129 22.3067C40.3353 21.8136 39.9511 21.2024 39.6675 20.4873C39.3853 19.7736 39.2421 19.0111 39.2421 18.2204C39.2421 17.0016 39.5035 15.9443 40.0193 15.0783C40.5384 14.2054 41.3643 13.5053 42.4735 12.9979C43.4311 12.5557 44.5737 12.2456 45.8687 12.0774C47.0408 11.9244 48.3179 11.8063 49.6687 11.7257V11.5129C49.6687 10.9099 49.5806 10.4237 49.407 10.0684C49.2366 9.72038 49.0065 9.45998 48.704 9.27283C48.3849 9.06696 47.9909 8.93017 47.527 8.8627C47.031 8.79038 46.5127 8.75365 45.9865 8.75365C45.3706 8.75365 44.6311 8.8493 43.7886 9.03807C42.9431 9.22731 42.0834 9.50619 41.233 9.86687L41.1694 9.89413H40.5936V6.42091L40.8415 6.34859C41.3632 6.19632 42.1186 6.02696 43.0874 5.84558C44.0637 5.66236 45.0442 5.5697 46.0016 5.5697C47.1602 5.5697 48.1555 5.66351 48.959 5.84835ZM49.6669 18.7982V14.6833C49.0654 14.7397 48.3477 14.8111 47.5276 14.8961C46.5407 14.998 45.7352 15.1427 45.1332 15.3256C44.448 15.5382 43.8747 15.8665 43.4312 16.3007C43.0118 16.7115 42.808 17.2804 42.808 18.0399C42.808 18.9061 43.0335 19.5339 43.4973 19.9588C43.9643 20.3874 44.6765 20.6043 45.6135 20.6043C46.4337 20.6043 47.1838 20.4239 47.843 20.0678C48.4859 19.7203 49.099 19.2936 49.6669 18.7982Z" fill="#4A4A4A"/>
<path fill-rule="evenodd" clip-rule="evenodd" d="M64.8792 5.82584C65.3986 5.99266 65.9313 6.22418 66.468 6.51623L66.6021 5.97487H69.8268V29.6107H66.3484V22.0073C65.7074 22.5311 65.0722 22.935 64.4538 23.2114C63.641 23.5746 62.7298 23.7587 61.7457 23.7587C59.7582 23.7587 58.1513 22.9415 56.9698 21.3301C55.8114 19.7513 55.2241 17.5387 55.2241 14.754C55.2241 13.2799 55.4281 11.956 55.8307 10.8187C56.2343 9.67753 56.7782 8.70409 57.4465 7.92474C58.0878 7.16226 58.8665 6.56152 59.7594 6.14192C60.6532 5.72232 61.5961 5.50952 62.5626 5.50952C63.4448 5.50952 64.2242 5.61604 64.8792 5.82584ZM66.3495 9.55434C65.7483 9.26622 65.2019 9.05896 64.723 8.93812C64.1979 8.80549 63.6263 8.73825 63.0239 8.73825C61.6604 8.73825 60.6426 9.21792 59.9124 10.2048C59.1693 11.2089 58.7924 12.6939 58.7924 14.6188C58.7924 16.5061 59.0956 17.9675 59.6933 18.9631C60.2655 19.9162 61.1362 20.3795 62.3556 20.3795C63.0852 20.3795 63.807 20.218 64.5014 19.8998C65.1632 19.5972 65.7844 19.2009 66.3495 18.7208V9.55434Z" fill="#4A4A4A"/>
<path d="M83.3087 18.6768C82.7205 19.1814 82.0703 19.6146 81.3745 19.9658C80.6544 20.33 79.9712 20.5146 79.3445 20.5146C78.6689 20.5146 78.1541 20.4261 77.8136 20.2516C77.4838 20.0834 77.2285 19.8219 77.0344 19.455C76.8276 19.0555 76.6925 18.579 76.6335 18.0393C76.5706 17.4716 76.5388 16.7401 76.5388 15.8646V5.97473H73.0604V17.1999C73.0604 18.363 73.199 19.3692 73.4718 20.1911C73.7483 21.0243 74.1453 21.7278 74.6512 22.2819C75.1615 22.8402 75.7683 23.254 76.4548 23.5121C77.1288 23.7653 77.8563 23.8938 78.6168 23.8938C79.6169 23.8938 80.5386 23.6817 81.356 23.2637C81.9779 22.9457 82.6324 22.5095 83.3087 21.9633V23.4284H86.7871V5.97473H83.3087V18.6768Z" fill="#4A4A4A"/>
<mask id="mask0" mask-type="alpha" maskUnits="userSpaceOnUse" x="88" y="5" width="15" height="19">
<path fill-rule="evenodd" clip-rule="evenodd" d="M88.9828 5.5697H102.873V23.8938H88.9828V5.5697Z" fill="white"/>
</mask>
<g>
<path fill-rule="evenodd" clip-rule="evenodd" d="M100.938 6.88395C101.59 7.38095 102.082 8.03021 102.401 8.81557C102.714 9.58498 102.873 10.5279 102.873 11.618V23.4287H99.4093V21.9968C99.2986 22.0842 99.1792 22.1789 99.0521 22.2808C98.6546 22.5989 98.2621 22.8566 97.8859 23.0467C97.3807 23.3124 96.8787 23.5227 96.3982 23.669C95.9005 23.8203 95.234 23.8938 94.3608 23.8938C93.6351 23.8938 92.9358 23.7535 92.2826 23.4765C91.6303 23.2004 91.0485 22.8067 90.5535 22.3067C90.076 21.8136 89.6918 21.2024 89.4082 20.4873C89.126 19.7736 88.9828 19.0111 88.9828 18.2204C88.9828 17.0016 89.2442 15.9443 89.7599 15.0783C90.2791 14.2054 91.105 13.5053 92.2142 12.9979C93.1718 12.5557 94.3144 12.2456 95.6093 12.0774C96.7815 11.9244 98.0586 11.8063 99.4093 11.7257V11.5129C99.4093 10.9099 99.3213 10.4237 99.1477 10.0684C98.9773 9.72038 98.7472 9.45998 98.4446 9.27283C98.1256 9.06696 97.7315 8.93017 97.2677 8.8627C96.7716 8.79038 96.2534 8.75365 95.7271 8.75365C95.1112 8.75365 94.3718 8.8493 93.5293 9.03807C92.6837 9.22731 91.824 9.50619 90.9737 9.86687L90.9101 9.89413H90.3342V6.42091L90.5821 6.34859C91.1038 6.19632 91.8592 6.02696 92.828 5.84558C93.8044 5.66236 94.7849 5.5697 95.7422 5.5697C96.9009 5.5697 97.8962 5.66351 98.6996 5.84835C99.5255 6.03851 100.278 6.38695 100.938 6.88395ZM99.407 18.7982V14.6833C98.8055 14.7397 98.0878 14.8111 97.2677 14.8961C96.2808 14.998 95.4753 15.1427 94.8733 15.3256C94.1881 15.5382 93.6148 15.8665 93.1713 16.3007C92.7518 16.7115 92.5481 17.2804 92.5481 18.0399C92.5481 18.9061 92.7736 19.5339 93.2374 19.9588C93.7044 20.3874 94.4166 20.6043 95.3536 20.6043C96.1738 20.6043 96.9239 20.4239 97.5831 20.0678C98.226 19.7203 98.8391 19.2936 99.407 18.7982Z" fill="#4A4A4A"/>
</g>
</svg>
