<svg width="30" height="30" viewBox="0 0 16 16" fill="none" xmlns="http://www.w3.org/2000/svg">
<path fill-rule="evenodd" clip-rule="evenodd" d="M13.5493 8.69434C13.5617 8.54107 13.571 8.38626 13.571 8.2299C13.571 7.3103 13.3434 6.4449 12.9409 5.68631L15.1114 3.89202L13.9193 2.47702L11.7813 4.19855C11.0382 3.52666 10.1093 3.05602 9.07983 2.87489V0H7.18491V2.87489C6.16624 3.05448 5.24509 3.51737 4.50508 4.17997L2.30828 2.36555L1.11621 3.85331L3.32696 5.67857C2.92289 6.4387 2.69221 7.30721 2.69221 8.22835C2.69221 8.3553 2.69686 8.4807 2.70615 8.6061L0 9.23154L0.452063 11.0723L3.16439 10.4453C3.56536 11.3432 4.2032 12.1111 4.99739 12.6731L3.86416 15.2321L5.59652 16L6.71272 13.4812C7.16478 13.6035 7.64006 13.6685 8.13082 13.6685C8.69899 13.6685 9.24548 13.5818 9.75947 13.4193L11.0692 15.9241L12.7489 15.0463L11.4407 12.543C12.1312 12.0135 12.6885 11.32 13.0601 10.5242L15.6393 11.2132L16.1533 9.38945L13.5493 8.69434ZM4.21095 8.24848C4.21095 7.69115 4.3286 7.16014 4.5376 6.68021L5.96188 7.85525L4.21095 8.25931C4.21095 8.25622 4.21095 8.25157 4.21095 8.24848ZM5.6213 11.2673C5.23426 10.9438 4.91225 10.5459 4.67229 10.097L6.30711 9.71921L5.6213 11.2673ZM5.70025 5.16613C6.13064 4.82245 6.63532 4.56701 7.18491 4.42767V6.3582C7.17562 6.36284 7.16788 6.36594 7.15859 6.37059L5.70025 5.16613ZM8.15095 12.1869C7.86764 12.1869 7.59208 12.156 7.3258 12.1002L8.11069 10.3292C8.11844 10.3292 8.12463 10.3307 8.13237 10.3307C8.13702 10.3307 8.14165 10.3307 8.1463 10.3307L9.06125 12.0817C8.76866 12.1498 8.46367 12.1869 8.15095 12.1869ZM8.13237 9.25012C7.56885 9.25012 7.11215 8.79342 7.11215 8.2299C7.11215 7.66638 7.56885 7.20968 8.13237 7.20968C8.69589 7.20968 9.15259 7.66638 9.15259 8.2299C9.15259 8.79342 8.69589 9.25012 8.13237 9.25012ZM9.09221 6.36439C9.08756 6.36284 9.08447 6.3613 9.07983 6.3582V4.41993C9.64026 4.55617 10.1527 4.81161 10.5893 5.15839L9.09221 6.36439ZM10.7456 11.2101L9.95298 9.69444L11.6064 10.1372C11.3835 10.5428 11.0909 10.9066 10.7456 11.2101ZM12.0879 8.30421L10.34 7.83667L11.7566 6.66473C11.9702 7.1493 12.0894 7.68341 12.0894 8.24693C12.0894 8.26705 12.0879 8.28563 12.0879 8.30421Z" fill="#183278"/>
</svg>
